PathFileType	4	(X/Y/Z)	C:\Github\FootballMatch-and-Movement-Analysis\output\test Exam_2026-03-06_135002_tvc2_Sports2D\test Exam_2026-03-06_135002_tvc2_Sports2D_px_person00.trc
DataRate	CameraRate	NumFrames	NumMarkers	Units	OrigDataRate	OrigDataStartFrame	OrigNumFrames
30.0	30.0	4	22	m	30.0	258	516
Frame#	Time	Hip			RHip			RKnee			RAnkle			RBigToe			RSmallToe			RHeel			LHip			LKnee			LAnkle			LBigToe			LSmallToe			LHeel			Neck			Head			Nose			RShoulder			RElbow			RWrist			LShoulder			LElbow			LWrist			
		X1	Y1	Z1	X2	Y2	Z2	X3	Y3	Z3	X4	Y4	Z4	X5	Y5	Z5	X6	Y6	Z6	X7	Y7	Z7	X8	Y8	Z8	X9	Y9	Z9	X10	Y10	Z10	X11	Y11	Z11	X12	Y12	Z12	X13	Y13	Z13	X14	Y14	Z14	X15	Y15	Z15	X16	Y16	Z16	X17	Y17	Z17	X18	Y18	Z18	X19	Y19	Z19	X20	Y20	Z20	X21	Y21	Z21	X22	Y22	Z22
258	8.616699029126213	307.7764147842712	690.988071992372	0.0	269.98999511933584	710.3522617988797	0.0	285.5702822623794	868.091811925563	0.0	304.68484055663953	1005.6322577307303	0.0	294.63837626987487	1067.979849843371	0.0	274.68854704603586	1061.0325579234404	0.0	316.06095883729233	1027.620587535072	0.0	351.9108645583297	699.5438760675906	0.0	358.68392480711316	847.2406691880342	0.0	365.8556822449692	1023.2274670208005	0.0	370.5255162378365	1095.0947054288606	0.0	394.98341184833106	1089.7526109782514	0.0	361.31247703871395	1047.8353257884344	0.0	278.59682387417115	437.98902574957106	0.0	266.3503558874521	327.9586945858173	0.0	268.7852627488474	385.08421537497213	0.0	211.42873160741098	485.72129119730965	0.0	153.31662776737613	570.9559336504468	0.0	208.99056449093138	636.8229635574577	0.0	362.24257549606523	468.20176955996	0.0	442.0470287521921	539.6057650992572	0.0	401.66537368023717	616.6896829074535	0.0
259	8.65009708737864	309.2936947398693	691.2664832041726	0.0	271.5215697438805	710.2295119710597	0.0	286.60936172346555	868.5834521121666	0.0	305.00128815098327	1007.6096990321171	0.0	293.6329712293167	1069.4278234237377	0.0	274.6016480114978	1061.3945852269712	0.0	317.0828248714208	1028.341242612828	0.0	352.95347241411963	698.9982954341837	0.0	360.31548748078274	846.2784407985953	0.0	369.7210693927358	1025.739739058165	0.0	375.3126807829383	1096.575363330097	0.0	399.45950914364903	1092.046809208589	0.0	365.25682418291666	1050.0280669879057	0.0	277.28133297971823	438.08921628518027	0.0	263.51220391867906	328.023815245094	0.0	267.91763282937336	385.74565228035976	0.0	211.16146631964713	487.9108336434157	0.0	153.56719381872654	573.524967603529	0.0	209.9769448012186	638.9177855035805	0.0	360.951363459067	468.19416196840126	0.0	443.0224377635107	537.0156637356415	0.0	400.885045322539	615.351971943456	0.0
260	8.683495145631069	311.00875869028255	692.1107406010974	0.0	273.00107801827755	710.537849434555	0.0	287.2263343874506	869.2378164230101	0.0	305.0808063655004	1009.0801004648981	0.0	292.9751209343878	1070.8856983422622	0.0	274.32709480321	1061.9356533002954	0.0	317.5113475337244	1029.098414968112	0.0	354.0654219378149	699.3080765305706	0.0	361.84982802144054	847.197058743112	0.0	373.07131572445303	1027.5384098411128	0.0	378.6988834355248	1097.2778108822965	0.0	402.7121739513438	1093.5931169552982	0.0	368.47694558619753	1051.506857087892	0.0	276.55767112281075	439.81767109840246	0.0	261.26813374038005	328.86769131103006	0.0	267.4726161621999	387.0584036571477	0.0	210.89251094019733	489.81545638968083	0.0	154.3533979716265	576.3853107905643	0.0	210.59813463200646	640.4145211946495	0.0	360.0162389641861	468.39612648562075	0.0	444.3709838932186	535.0037632206098	0.0	400.38722300499694	613.678772830907	0.0
261	8.716893203883496	311.97025140346426	694.0933076751941	0.0	273.88553966975763	712.3481545587514	0.0	287.3181343134341	870.4606018902936	0.0	304.9900731321959	1009.6900177042897	0.0	293.03275971166556	1071.523513829045	0.0	274.05152985844734	1062.7266373825466	0.0	317.2271175515406	1030.0279394232166	0.0	354.92277869807043	701.3467422290457	0.0	363.5396943949362	850.3016828415134	0.0	375.66570860886145	1028.6064284865793	0.0	381.0724350456186	1097.7406084515696	0.0	405.47966235921825	1094.3007739910686	0.0	370.51768843592856	1051.9279631509542	0.0	275.9493629880848	443.167765410142	0.0	259.6765393196753	330.31071291552644	0.0	266.6469303423868	388.8355684962645	0.0	210.3930429840496	491.5733864999614	0.0	155.456888074328	579.3261482496556	0.0	210.7399953222706	641.079955187995	0.0	358.66049422295265	468.37915431157035	0.0	444.7827831573271	534.0163687064247	0.0	400.1262373191754	612.5523999951592	0.0
